<?xml version="1.0" standalone="no"?>
<!DOCTYPE svg PUBLIC "-//W3C//DTD SVG 20010904//EN"
 "http://www.w3.org/TR/2001/REC-SVG-20010904/DTD/svg10.dtd">
<svg version="1.0" xmlns="http://www.w3.org/2000/svg"
 width="500.000000pt" height="500.000000pt" viewBox="0 0 500.000000 500.000000"
 preserveAspectRatio="xMidYMid meet">
<metadata>
Created by potrace 1.14, written by Peter Selinger 2001-2017
</metadata>
<g transform="translate(0.000000,500.000000) scale(0.100000,-0.100000)"
fill="#000000" stroke="none">
<path d="M2285 3949 c-22 -5 -58 -11 -80 -14 -57 -9 -155 -36 -186 -51 -15 -7
-29 -10 -33 -7 -3 4 -6 1 -6 -5 0 -7 -7 -12 -15 -12 -14 0 -83 -32 -185 -85
-19 -11 -41 -25 -48 -32 -7 -7 -17 -13 -22 -13 -5 0 -15 -6 -22 -12 -7 -7 -33
-26 -58 -43 -43 -29 -199 -178 -250 -240 -62 -75 -175 -264 -223 -375 -20 -48
-67 -203 -72 -240 -1 -8 -6 -33 -10 -55 -4 -22 -8 -59 -9 -82 0 -24 -3 -43 -6
-43 -8 0 -3 -296 5 -340 3 -19 7 -49 9 -65 8 -62 68 -254 92 -292 8 -13 12
-23 9 -23 -8 0 54 -122 73 -142 8 -10 11 -18 6 -18 -5 0 -4 -4 1 -8 6 -4 39
-50 75 -102 61 -89 168 -205 255 -278 77 -63 265 -181 265 -166 0 4 8 0 18 -8
9 -8 51 -27 92 -42 41 -16 84 -32 95 -37 23 -11 62 -21 88 -22 9 -1 17 -4 17
-7 0 -4 10 -6 23 -5 12 1 27 -1 32 -5 6 -4 37 -11 70 -15 33 -5 69 -9 80 -11
36 -5 269 -4 295 1 14 3 43 8 65 10 22 3 50 7 63 10 12 3 30 7 40 9 80 18 166
45 232 73 90 39 169 78 208 104 24 16 46 29 50 29 4 0 20 11 35 25 15 14 27
22 27 18 0 -4 6 -1 13 7 7 8 24 21 40 29 15 8 27 18 27 23 0 4 8 8 17 8 9 0
14 3 10 6 -6 7 -4 9 60 66 23 20 39 39 35 42 -3 3 2 6 11 6 9 0 17 3 17 8 0 4
12 21 26 37 65 74 136 185 191 295 15 30 30 56 34 58 4 2 5 12 2 22 -3 11 0
20 6 20 6 0 10 3 10 8 -1 4 0 9 1 12 1 3 3 14 5 25 2 11 8 21 14 23 5 2 7 10
4 18 -3 8 -1 14 3 14 5 0 10 10 10 23 3 46 9 67 17 67 4 0 7 6 6 13 -3 12 6
70 19 132 9 43 8 361 -1 420 -5 28 -9 61 -10 75 -1 14 -5 27 -8 30 -4 3 -8 21
-10 40 -2 19 -8 41 -13 49 -6 8 -10 15 -8 15 7 2 -12 62 -35 114 -13 29 -21
58 -18 63 4 5 2 9 -3 9 -5 0 -21 27 -36 60 -15 33 -32 60 -38 60 -5 0 -6 4 -3
10 3 5 -5 21 -18 34 -14 14 -22 27 -19 30 3 3 0 6 -7 6 -7 0 -10 4 -7 9 4 5 3
11 -1 13 -5 1 -27 29 -51 61 -64 86 -258 277 -282 277 -4 0 -10 4 -12 8 -14
35 -328 203 -360 194 -5 -1 -8 2 -8 6 0 5 -6 9 -12 10 -7 0 -43 10 -80 21 -37
10 -84 21 -105 22 -21 1 -42 5 -47 7 -26 14 -428 23 -481 11z"/>
</g>
</svg>
